<svg width="32" height="32" viewBox="0 0 32 32" fill="none" xmlns="http://www.w3.org/2000/svg">
<path opacity="0.5" d="M16 16.5C14.6667 15.8333 12.5 14 12.5 12C12.5 11.3333 12.9 10 14.5 10C15 10 16 10.5 16 11" stroke="black" stroke-width="0.2"/>
<mask id="mask0" mask-type="alpha" maskUnits="userSpaceOnUse" x="16" y="4" width="9" height="24">
<rect width="9" height="24" transform="matrix(-1 0 0 1 25 4)" fill="#CBE6EE"/>
</mask>
<g mask="url(#mask0)">
<path d="M12.9658 15.5446C10.2597 13.8407 7 10.3691 7 4H25C25 10.3691 21.7403 13.8407 19.0342 15.5446C18.6877 15.7628 18.6877 16.2372 19.0342 16.4554C21.7403 18.1593 25 21.6309 25 28H7C7 21.6309 10.2597 18.1593 12.9658 16.4554C13.3123 16.2372 13.3123 15.7628 12.9658 15.5446Z" fill="#9CC0CE"/>
</g>
<mask id="mask1" mask-type="alpha" maskUnits="userSpaceOnUse" x="7" y="4" width="18" height="24">
<path d="M12.9658 15.5446C10.2597 13.8407 7 10.3691 7 4H25C25 10.3691 21.7403 13.8407 19.0342 15.5446C18.6877 15.7628 18.6877 16.2372 19.0342 16.4554C21.7403 18.1593 25 21.6309 25 28H7C7 21.6309 10.2597 18.1593 12.9658 16.4554C13.3123 16.2372 13.3123 15.7628 12.9658 15.5446Z" fill="black"/>
</mask>
<g mask="url(#mask1)">
<path d="M16 4H7V28H16V4Z" fill="#C3E1EA"/>
</g>
<path fill-rule="evenodd" clip-rule="evenodd" d="M9 27H11.9935C11.9935 22.5 13.8478 21.337 15.9999 20L15.9999 16C11 18.5 9.30178 22.3644 9 27Z" fill="#E6F3F8"/>
<path d="M25 0H7C6.44772 0 6 0.447715 6 1V4C6 4.55228 6.44772 5 7 5H25C25.5523 5 26 4.55228 26 4V1C26 0.447715 25.5523 0 25 0Z" fill="#3E3870"/>
<path d="M25 27H7C6.44772 27 6 27.4477 6 28V31C6 31.5523 6.44772 32 7 32H25C25.5523 32 26 31.5523 26 31V28C26 27.4477 25.5523 27 25 27Z" fill="#3E3870"/>
<rect x="9" y="27" width="3" height="5" fill="#A198B8"/>
<path fill-rule="evenodd" clip-rule="evenodd" d="M11.993 5.00003H9C9.24779 9.6329 11 13.5 15.9988 16L16 12C15.617 11.617 15.1682 11.3969 14.7123 11.1734C13.3831 10.5217 11.993 9.84011 11.993 5.00003Z" fill="#E6F3F8"/>
<rect x="9" width="3" height="5" fill="#A198B8"/>
<path d="M12 10.2361C12 12.3301 14.6664 14.3194 15.9996 15V9.14423C15.9996 8.68055 15.2817 8 14.3587 8C12.5772 8 12 9.5381 12 10.2361Z" fill="#E61B76"/>
<path d="M20 10.2361C20 12.3301 17.3336 14.3194 16.0004 15V9.14423C16.0004 8.68055 16.7183 8 17.6413 8C19.4228 8 20 9.5381 20 10.2361Z" fill="#CC1F6A"/>
<path d="M13 25.2431C13 23.5978 15.0001 22.0347 16.0001 21.5V26.101C16.0001 26.4653 15.4616 27 14.7693 27C13.433 27 13 25.7915 13 25.2431Z" fill="#E61B76"/>
<path d="M19.0005 25.2431C19.0005 23.5978 17.0004 22.0347 16.0004 21.5V26.101C16.0004 26.4653 16.5389 27 17.2312 27C18.5675 27 19.0005 25.7915 19.0005 25.2431Z" fill="#CC1F6A"/>
<ellipse cx="15.9997" cy="18" rx="1.49974" ry="1.5" fill="#E61B76"/>
<path d="M17.5003 18C17.5003 18.8284 16.8288 19.5 16.0005 19.5C16.0005 19.5 16 18.8284 16 18C16 17.1716 16.0005 16.5 16.0005 16.5C16.8288 16.5 17.5003 17.1716 17.5003 18Z" fill="#CC1F6A"/>
</svg>
